#N canvas 2036 548 1177 715 12;
#X declare -path AutoPreset -path ggee -path zexy -lib zexy -path iemlib -lib iemlib;
#N canvas 2003 904 620 300 guts 0;
#N canvas 2065 503 544 411 CS4-chans-doc 0;
#X text 14 14 1: dimmer 1;
#X text 14 31 2: dimmer 2;
#X text 13 47 3: dimmer 3;
#X text 13 64 4: dimmer 4;
#X text 57 81 5: global pan;
#X text 11 114 7: global tilt;
#X text 11 153 9: pan 1;
#X text 11 169 10: pan 1 fine;
#X text 11 130 8: global tilt fine;
#X text 57 95 6: global pan fine;
#X text 12 186 11: pan 1;
#X text 12 203 12: pan 1 fine;
#X text 12 221 13: pan 1;
#X text 12 237 14: pan 1 fine;
#X text 13 255 15: pan 1;
#X text 13 271 16: pan 1 fine;
#X text 61 288 17: pan mode normal=0-63 mode1=64-127 mode2=127-255;
#X text 13 308 18: motor speed 8 levels: max=0-31 min=224-255;
#X text 62 333 19: reset all motors (128-191);
#X text 62 351 20: aux;
#X restore 27 21 pd CS4-chans-doc;
#X obj 24 90 apmaster main;
#X obj 25 156 apmasterfile main main-patterns.txt;
#X obj 267 125 r \$0-save-main;
#X obj 293 157 bng 20 250 50 0 empty empty empty 0 -10 0 12 #fcfcfc #000000 #000000;
#X obj 25 128 r \$0-reload-main;
#X obj 147 127 loadbang;
#X obj 426 54 loadbang;
#X obj 426 79 tgl 20 0 empty empty empty 0 -10 0 12 #fcfcfc #000000 #000000 0 1;
#X obj 426 104 metro 20;
#X obj 426 129 s update-bang;
#X obj 27 190 declare -path AutoPreset -path ggee -path zexy -lib zexy -path iemlib -lib iemlib;
#X obj 129 90 patternFade main;
#X connect 3 0 2 1;
#X connect 3 0 4 0;
#X connect 5 0 2 0;
#X connect 6 0 2 0;
#X connect 7 0 8 0;
#X connect 8 0 9 0;
#X connect 9 0 10 0;
#X restore 623 609 pd guts;
#X obj 7 538 64patterns main;
#X obj 543 554 bng 20 250 50 0 \$0-save-main \$0-save-main SAVE 0 -10 0 12 #ff0400 #000000 #000000;
#X obj 544 593 bng 20 250 50 0 \$0-reload-main \$0-reload-main RELOAD 0 -10 0 12 #00ff04 #000000 #000000;
#X obj 7 8 CS4 1 1;
#X obj 281 8 CS4 2 21;
#X obj 556 8 CS4 3 41;
#X obj 830 8 CS4 4 61;
#X obj 622 560 tgl 40 0 vu-on vu-on vu-on 0 -10 0 12 #dfdfdf #000000 #000000 0 1;
#X msg 733 591 _all_ load \$1;
#X obj 736 543 hsl 170 20 0 1 0 0 empty empty empty -2 -10 0 12 #fcfcfc #000000 #000000 0 1;
#X obj 733 568 * 1;
#X obj 733 614 s main-pattern-snd;
#X obj 1107 32 vsl 40 500 0 1 0 0 lummaster-snd lummaster-rcv master 0 -9 0 12 #faff00 #000000 #000000 0 1;
#X obj 18 117 mode_pre panmode-\$1 \$0, f 102;
#X obj 927 669 hsl 170 20 0 10000 0 0 main-fadeToScene-time main-fadeToScene-time fadeTime:1.4_sec 10 10 0 12 #dfdfdf #ff0400 #000000 0 1;
#X obj 923 548 64patterns-fade main-fade;
#X connect 9 0 12 0;
#X connect 10 0 11 0;
#X connect 11 0 9 0;
