#N canvas 78 98 1261 585 12;
#X declare -path Fraise;
#X declare -path AutoPreset -path ggee -path zexy -lib zexy -path iemlib
-lib iemlib -path moonlib;
#N canvas 148 135 838 350 guts 0;
#N canvas 811 319 544 411 CS4-chans-doc 0;
#X text 14 14 1: dimmer 1;
#X text 14 31 2: dimmer 2;
#X text 13 47 3: dimmer 3;
#X text 13 64 4: dimmer 4;
#X text 57 81 5: global pan;
#X text 11 114 7: global tilt;
#X text 11 154 9: pan 1;
#X text 11 169 10: pan 1 fine;
#X text 11 130 8: global tilt fine;
#X text 57 95 6: global pan fine;
#X text 61 288 17: pan mode normal=0-63 mode1=64-127 mode2=127-255
;
#X text 13 308 18: motor speed 8 levels: max=0-31 min=224-255;
#X text 62 333 19: reset all motors (128-191);
#X text 62 351 20: aux;
#X text 12 186 11: pan 2;
#X text 12 203 12: pan 2 fine;
#X text 12 220 13: pan 3;
#X text 12 237 14: pan 3 fine;
#X text 13 255 15: pan 4;
#X text 13 271 16: pan 4 fine;
#X restore 27 21 pd CS4-chans-doc;
#X obj 426 54 loadbang;
#X obj 426 79 tgl 20 0 empty empty empty 0 -10 0 12 -262144 -1 -1 1
1;
#X obj 426 104 metro 20;
#X obj 426 129 s update-bang;
#N canvas 21 100 1340 539 nanoKontrol 0;
#X obj 27 18 ctlin, f 15;
#X obj 27 43 list prepend;
#X obj 27 68 s MIDICTL;
#X obj 28 110 r MIDICTL;
#X floatatom 128 69 5 0 0 0 - - -;
#X obj 128 45 change;
#X obj 231 160 / 127;
#X obj 415 410 / 127;
#X obj 415 460 s main-fadeToScene-time;
#X obj 415 435 * 10000;
#X obj 378 31 r MIDICTL;
#X msg 378 56 \$2 \$1;
#X obj 378 81 route 127;
#X obj 378 118 moses 32;
#X obj 431 143 - 32;
#X obj 431 168 moses 8;
#X obj 533 166 moses 8;
#X obj 480 116 moses 48;
#X obj 533 141 - 48;
#X obj 630 164 moses 8;
#X obj 577 114 moses 64;
#X obj 630 139 - 64;
#X obj 431 207 f;
#X floatatom 431 230 5 0 0 0 - - -;
#X obj 187 183 / 127;
#X floatatom 533 208 5 0 0 0 - - -;
#X obj 431 259 s mainH-fade-patternButton-rcv;
#X obj 533 237 s mainB-fade-patternButton-rcv;
#X floatatom 630 187 5 0 0 0 - - -;
#X obj 630 216 s mainE-fade-patternButton-rcv;
#X obj 415 385 route 23;
#X obj 415 361 r MIDICTL;
#X obj 231 185 s lummasterB-rcv;
#X obj 187 207 s movmasterB-rcv;
#X obj 138 267 / 127;
#X obj 83 291 / 127;
#X obj 83 315 s movmasterH-rcv;
#X obj 138 292 s lummasterH-rcv;
#X obj 28 134 route 2 3 4 5 6 7, f 35;
#X obj 32 321 / 127;
#X obj 32 345 s speedmasterH-rcv;
#X obj 144 214 / 127;
#X obj 144 238 s speedmasterB-rcv;
#X obj 854 32 unpack f f;
#X obj 854 11 r MIDICTL;
#X obj 854 78 pack f f;
#X obj 921 55 - 63;
#X obj 854 354 s tilt-1-offset;
#X obj 921 79 / 256;
#X obj 883 309 s tilt-2-offset;
#X obj 912 285 s tilt-3-offset;
#X obj 941 263 s tilt-4-offset;
#X obj 854 179 *;
#X obj 883 168 *;
#X obj 912 156 *;
#X obj 941 145 *;
#X obj 983 107 t b f;
#X obj 990 79 / 127;
#X obj 854 105 route 16 17 18 19;
#X obj 912 184 * -1;
#X obj 941 168 * -1;
#N canvas 1 81 450 300 line 0;
#X obj 62 44 inlet;
#X obj 62 68 pack f f;
#X obj 62 92 line;
#X obj 62 116 outlet;
#X obj 115 17 r main-fadeToScene-time;
#X obj 115 42 route float;
#X connect 0 0 1 0;
#X connect 1 0 2 0;
#X connect 2 0 3 0;
#X connect 4 0 5 0;
#X connect 5 0 1 1;
#X restore 854 331 pd line;
#N canvas 1 81 450 300 line 0;
#X obj 62 44 inlet;
#X obj 62 68 pack f f;
#X obj 62 92 line;
#X obj 62 116 outlet;
#X obj 115 13 r main-fadeToScene-time;
#X obj 115 40 route float;
#X connect 0 0 1 0;
#X connect 1 0 2 0;
#X connect 2 0 3 0;
#X connect 4 0 5 0;
#X connect 5 0 1 1;
#X restore 883 261 pd line;
#N canvas 1 81 450 300 line 0;
#X obj 62 44 inlet;
#X obj 62 68 pack f f;
#X obj 62 92 line;
#X obj 62 116 outlet;
#X obj 115 16 r main-fadeToScene-time;
#X obj 115 42 route float;
#X connect 0 0 1 0;
#X connect 1 0 2 0;
#X connect 2 0 3 0;
#X connect 4 0 5 0;
#X connect 5 0 1 1;
#X restore 912 232 pd line;
#N canvas 1 81 450 300 line 0;
#X obj 62 44 inlet;
#X obj 62 68 pack f f;
#X obj 62 92 line;
#X obj 62 116 outlet;
#X obj 115 16 r main-fadeToScene-time;
#X obj 115 42 route float;
#X connect 0 0 1 0;
#X connect 1 0 2 0;
#X connect 2 0 3 0;
#X connect 4 0 5 0;
#X connect 5 0 1 1;
#X restore 941 209 pd line;
#X obj 990 55 route 20 21;
#X obj 1036 80 / 127;
#X obj 1036 109 s motorspeed-E-rcv;
#X obj 1081 164 unpack f f;
#X obj 1081 143 r MIDICTL;
#X obj 1081 210 pack f f;
#X obj 1148 187 - 63;
#X obj 1081 311 *;
#X obj 1148 311 *;
#X obj 1210 239 t b f;
#X obj 1217 211 / 127;
#N canvas 1 81 450 300 line 0;
#X obj 62 44 inlet;
#X obj 62 68 pack f f;
#X obj 62 92 line;
#X obj 62 116 outlet;
#X obj 115 17 r main-fadeToScene-time;
#X obj 115 42 route float;
#X connect 0 0 1 0;
#X connect 1 0 2 0;
#X connect 2 0 3 0;
#X connect 4 0 5 0;
#X connect 5 0 1 1;
#X restore 1082 348 pd line;
#N canvas 1 81 450 300 line 0;
#X obj 62 44 inlet;
#X obj 62 68 pack f f;
#X obj 62 92 line;
#X obj 62 116 outlet;
#X obj 115 13 r main-fadeToScene-time;
#X obj 115 40 route float;
#X connect 0 0 1 0;
#X connect 1 0 2 0;
#X connect 2 0 3 0;
#X connect 4 0 5 0;
#X connect 5 0 1 1;
#X restore 1147 348 pd line;
#X obj 1081 237 route 0 1;
#X obj 1081 486 s pan-1-offset;
#X obj 1110 441 s pan-2-offset;
#X obj 1139 417 s pan-3-offset;
#X obj 1168 395 s pan-4-offset;
#X obj 1096 394 * -1;
#X obj 1217 187 route 20;
#X obj 1148 211 / 256;
#X obj 1194 20 r MIDICTL;
#X obj 1194 45 route 22;
#X obj 1194 69 * 2;
#X msg 1194 118 81 \$1;
#X obj 1194 142 s 2DMX;
#X floatatom 1248 121 5 0 0 0 - - -;
#X obj 1194 93 min 248;
#X connect 0 0 1 0;
#X connect 0 1 1 1;
#X connect 0 1 5 0;
#X connect 1 0 2 0;
#X connect 3 0 38 0;
#X connect 5 0 4 0;
#X connect 6 0 32 0;
#X connect 7 0 9 0;
#X connect 9 0 8 0;
#X connect 10 0 11 0;
#X connect 11 0 12 0;
#X connect 12 0 13 0;
#X connect 12 0 17 0;
#X connect 12 0 20 0;
#X connect 13 1 14 0;
#X connect 14 0 15 0;
#X connect 15 0 22 0;
#X connect 16 0 25 0;
#X connect 17 1 18 0;
#X connect 18 0 16 0;
#X connect 19 0 28 0;
#X connect 20 1 21 0;
#X connect 21 0 19 0;
#X connect 22 0 23 0;
#X connect 23 0 26 0;
#X connect 24 0 33 0;
#X connect 25 0 27 0;
#X connect 28 0 29 0;
#X connect 30 0 7 0;
#X connect 31 0 30 0;
#X connect 34 0 37 0;
#X connect 35 0 36 0;
#X connect 38 0 39 0;
#X connect 38 1 35 0;
#X connect 38 2 34 0;
#X connect 38 3 41 0;
#X connect 38 4 24 0;
#X connect 38 5 6 0;
#X connect 39 0 40 0;
#X connect 41 0 42 0;
#X connect 43 0 45 0;
#X connect 43 1 46 0;
#X connect 44 0 43 0;
#X connect 44 0 65 0;
#X connect 45 0 58 0;
#X connect 46 0 48 0;
#X connect 48 0 45 1;
#X connect 52 0 61 0;
#X connect 53 0 62 0;
#X connect 54 0 59 0;
#X connect 55 0 60 0;
#X connect 56 0 55 0;
#X connect 56 0 54 0;
#X connect 56 0 53 0;
#X connect 56 0 52 0;
#X connect 56 1 55 1;
#X connect 56 1 54 1;
#X connect 56 1 53 1;
#X connect 56 1 52 1;
#X connect 57 0 56 0;
#X connect 58 0 52 0;
#X connect 58 1 53 0;
#X connect 58 2 54 0;
#X connect 58 3 55 0;
#X connect 59 0 63 0;
#X connect 60 0 64 0;
#X connect 61 0 47 0;
#X connect 62 0 49 0;
#X connect 63 0 50 0;
#X connect 64 0 51 0;
#X connect 65 0 57 0;
#X connect 65 1 66 0;
#X connect 66 0 67 0;
#X connect 68 0 70 0;
#X connect 68 1 71 0;
#X connect 69 0 68 0;
#X connect 69 0 84 0;
#X connect 70 0 78 0;
#X connect 71 0 85 0;
#X connect 72 0 76 0;
#X connect 73 0 77 0;
#X connect 74 0 73 0;
#X connect 74 0 72 0;
#X connect 74 1 73 1;
#X connect 74 1 72 1;
#X connect 75 0 74 0;
#X connect 76 0 79 0;
#X connect 76 0 83 0;
#X connect 77 0 81 0;
#X connect 77 0 82 0;
#X connect 78 0 72 0;
#X connect 78 1 73 0;
#X connect 83 0 80 0;
#X connect 84 0 75 0;
#X connect 85 0 70 1;
#X connect 86 0 87 0;
#X connect 87 0 88 0;
#X connect 88 0 91 0;
#X connect 88 0 92 0;
#X connect 89 0 90 0;
#X connect 92 0 89 0;
#X restore 286 36 pd nanoKontrol;
#X msg 552 120 _all_ load \$1;
#X obj 555 72 hsl 170 20 0 1 0 0 empty empty empty -2 -10 0 12 -262144
-1 -1 0 1;
#X obj 552 97 * 1;
#X obj 552 143 s main-pattern-snd;
#N canvas 809 107 546 591 Fraise 0;
#X obj 24 331 fruit/send2 fruit1;
#X floatatom 24 241 8 0 255 0 - - -;
#X obj 27 211 hsl 128 15 0 255 0 0 empty empty value -2 -8 0 10 -262144
-1 -1 0 1;
#X floatatom 89 241 8 1 255 1 channel - -;
#X msg 24 301 c 30 i \$2 c \$1;
#X obj 24 270 pack f 1;
#X obj 21 11 declare -path Fraise;
#X obj 21 130 fruit/fruit 1 fruit1 10 fw_dmx;
#X obj 220 11 r 2DMX;
#X msg 180 571 c 30 i \$1 c \$2;
#X obj 273 12 table \$0-dmxtable 512;
#X obj 220 37 s \$0-dmxtable;
#X obj 221 65 fruit/receive fruit1;
#X obj 221 89 route present;
#X obj 221 113 tgl 15 0 empty empty empty 17 7 0 10 -262144 -1 -1 1
1;
#X obj 221 157 i;
#X obj 255 158 + 1;
#X obj 255 182 mod 6;
#X obj 253 255 array get \$0-dmxtable 0 16;
#X obj 221 207 * 16;
#X obj 221 231 t f f;
#X obj 221 476 list append;
#X obj 253 279 t b a b;
#X msg 221 451 list i \$1;
#X obj 276 305 list split 1;
#X obj 276 351 list prepend c;
#X obj 276 375 list append;
#X obj 276 399 t a;
#X obj 253 423 list;
#X obj 316 327 t a;
#X obj 221 530 list trim;
#X obj 221 133 metro 3;
#X obj 221 501 list prepend c 30;
#X obj 22 37 pied/pied 0;
#X msg 406 111 const 0;
#X connect 1 0 5 0;
#X connect 2 0 1 0;
#X connect 3 0 5 1;
#X connect 4 0 0 0;
#X connect 5 0 4 0;
#X connect 8 0 11 0;
#X connect 9 0 0 0;
#X connect 12 0 13 0;
#X connect 13 0 14 0;
#X connect 14 0 31 0;
#X connect 15 0 16 0;
#X connect 15 0 19 0;
#X connect 16 0 17 0;
#X connect 17 0 15 1;
#X connect 18 0 22 0;
#X connect 19 0 20 0;
#X connect 20 0 23 0;
#X connect 20 1 18 0;
#X connect 21 0 32 0;
#X connect 22 0 28 0;
#X connect 22 1 24 0;
#X connect 22 2 26 1;
#X connect 23 0 21 0;
#X connect 24 0 25 0;
#X connect 24 1 29 0;
#X connect 25 0 26 0;
#X connect 26 0 27 0;
#X connect 27 0 26 1;
#X connect 27 0 28 1;
#X connect 28 0 21 1;
#X connect 29 0 24 0;
#X connect 30 0 0 0;
#X connect 31 0 15 0;
#X connect 32 0 30 0;
#X connect 34 0 11 0;
#X restore 184 34 pd Fraise;
#X obj 485 185 r 2DMX;
#X obj 485 210 spigot;
#X obj 485 235 print;
#X obj 539 183 tgl 20 0 empty empty empty 0 -10 0 12 -262144 -1 -1
0 1;
#X obj 27 190 declare -path AutoPreset -path ggee -path zexy -lib zexy
-path iemlib -lib iemlib -path moonlib;
#X obj 26 301 master_ap mainH \$0;
#X obj 308 301 master_ap mainE \$0;
#N canvas 2 110 450 300 fadeTime-label 0;
#X obj 66 119 / 100;
#X obj 66 141 i;
#X obj 66 163 / 10;
#X floatatom 98 174 5 0 0 0 - - -;
#X obj 66 64 route float;
#X msg 66 196 label fadeTime:\$1_sec;
#X obj 66 93 speedlim 100;
#X obj 66 28 r main-fadeToScene-time;
#X obj 66 221 s main-fadeToScene-time;
#X connect 0 0 1 0;
#X connect 1 0 2 0;
#X connect 2 0 3 0;
#X connect 2 0 5 0;
#X connect 4 0 6 0;
#X connect 5 0 8 0;
#X connect 6 0 0 0;
#X connect 7 0 4 0;
#X restore 26 277 pd fadeTime-label;
#X obj 165 301 master_ap mainB \$0;
#X connect 1 0 2 0;
#X connect 2 0 3 0;
#X connect 3 0 4 0;
#X connect 6 0 9 0;
#X connect 7 0 8 0;
#X connect 8 0 6 0;
#X connect 11 0 12 0;
#X connect 12 0 13 0;
#X connect 14 0 12 1;
#X restore 1088 521 pd guts;
#X obj 1181 477 bng 20 250 50 0 \$0-save-main \$0-save-main SAVE 0
-10 0 12 -258113 -1 -1;
#X obj 1180 517 bng 20 250 50 0 \$0-reload-main \$0-reload-main RELOAD
0 -10 0 12 -4034 -1 -1;
#X obj 1123 467 tgl 40 0 vu-on vu-on vu-on 0 -10 0 12 -228856 -1 -1
0 1;
#X obj 1207 40 vsl 40 400 0 1 0 0 lummasterB-snd lummasterB-rcv master
0 -9 0 12 -257985 -1 -1 0 1;
#X obj 609 538 hsl 170 20 0 10000 0 0 main-fadeToScene-time main-fadeToScene-time
fadeTime:2.1_sec 10 10 0 12 -228856 -258113 -1 0 1;
#X obj 1165 40 vsl 40 400 0 1 0 0 movmasterB-snd movmasterB-rcv move
0 -9 0 12 -4034 -1 -1 36130 1;
#X obj 578 40 vsl 40 400 0 1 0 0 lummasterH-snd lummasterH-rcv master
0 -9 0 12 -257985 -1 -1 0 1;
#X obj 536 40 vsl 40 400 0 1 0 0 movmasterH-snd movmasterH-rcv move
0 -9 0 12 -4034 -1 -1 29218 1;
#X text 774 -1 -------------BAS------------;
#X text 135 0 --------------HAUT-----------;
#X obj 7 18 CS4 1 1 H;
#X obj 251 18 CS4 2 21 H;
#X obj 636 18 CS4 3 41 B;
#X obj 880 18 CS4 4 61 B;
#X obj 361 449 effets E 0 E;
#X obj 108 448 8patterns-small mainH-fade;
#X obj 606 475 8patterns-small mainE-fade;
#X obj 858 448 8patterns-small mainB-fade;
#X obj 494 40 vsl 40 400 0 1 0 0 speedmasterH-snd speedmasterH-rcv
speed 0 -9 0 12 -159808 -1 -1 29532 1;
#X obj 1123 40 vsl 40 400 0 1 0 0 speedmasterB-snd speedmasterB-rcv
speed 0 -9 0 12 -159808 -1 -1 37387 1;
