#N canvas 2055 519 631 554 12;
#X obj 11 27 cnv 20 268 507 empty empty empty 20 12 0 12 #7c7c7c #404040 0;
#X obj 14 32 lamp \$1 1;
#X obj 18 454 hsl 250 20 0 1 0 0 tilt-\$1-snd tilt-\$1-rcv tilt 100 10 0 12 #00faff #000000 #000000 0 1;
#X obj 18 477 hsl 250 8 0 1 0 0 tiltvu-\$1-snd tiltvu-\$1-rcv empty -2 -10 0 12 #c6feff #000000 #000000 0 1;
#X obj 15 410 hradio 15 1 0 5 panmode-\$1-snd panmode-\$1-rcv osc 0 -5 0 8 #00ff04 #000000 #ffffff 0;
#X obj 119 405 hsl 70 20 0 1 0 0 panmode_amp-\$1-snd panmode_amp-\$1-rcv amp 15 7 0 10 #00ff04 #000000 #7c7c7c 0 1;
#X obj 15 434 hradio 15 1 0 5 lummode-\$1-snd lummode-\$1-rcv arriere 0 -5 0 8 #faff00 #000000 #ffffff 0;
#X obj 119 429 hsl 70 20 0 1 0 0 lummode_amp-\$1-snd lummode_amp-\$1-rcv amp 15 7 0 10 #faff00 #000000 #606060 0 1;
#X obj 198 405 hsl 70 20 0 1 0 0 panmode_speed-\$1-snd panmode_speed-\$1-rcv speed 10 7 0 10 #00ff04 #000000 #7c7c7c 0 1;
#X obj 198 429 hsl 70 20 0 1 0 0 lummode_speed-\$1-snd lummode_speed-\$1-rcv speed 10 7 0 10 #faff00 #000000 #606060 0 1;
#X obj 15 495 hradio 15 1 0 5 tiltmode-\$1-snd tiltmode-\$1-rcv osc 0 -5 0 8 #00faff #000000 #ffffff 0;
#X obj 119 490 hsl 70 20 0 1 0 0 tiltmode_amp-\$1-snd tiltmode_amp-\$1-rcv amp 15 7 0 10 #00faff #000000 #7c7c7c 0 1;
#X obj 198 490 hsl 70 20 0 1 0 0 tiltmode_speed-\$1-snd tiltmode_speed-\$1-rcv speed 10 7 0 10 #00faff #000000 #7c7c7c 0 1;
#X obj 299 197 apf main tilt-\$1 tilt-\$1;
#X obj 16 513 hsl 250 20 0 1 0 0 motorspeed-\$1-snd motorspeed-\$1-rcv motorspeed:3 100 10 0 12 #ff8300 #000000 #000000 0 1;
#X obj 300 249 apf main tiltmode_amp-\$1 tiltmode_amp-\$1;
#X obj 300 272 apf main tiltmode_speed-\$1 tiltmode_speed-\$1;
#X obj 300 304 apf main motorspeed-\$1 motorspeed-\$1;
#X obj 14 125 lamp \$1 2;
#X obj 14 218 lamp \$1 3;
#X obj 14 311 lamp \$1 4;
#X obj 299 224 api main tiltmode-\$1 tiltmode-\$1;
#X obj 297 63 apf main panmode_amp-\$1 panmode_amp-\$1;
#X obj 297 87 apf main panmode_speed-\$1 panmode_speed-\$1;
#X obj 298 146 apf main lummode_amp-\$1 lummode_amp-\$1;
#X obj 298 168 apf main lummode_speed-\$1 lummode_speed-\$1;
#N canvas 2337 698 492 547 labels 1;
#X obj 14 60 sel 0 1 2 3 4, f 37;
#X msg 83 85 avant;
#X msg 128 85 arriere;
#X msg 188 85 random;
#X msg 243 85 flash;
#X obj 14 119 symbol;
#X msg 14 86 constant;
#X msg 14 144 label \$1;
#X obj 14 35 r lummode-\$1-snd;
#X obj 14 169 s lummode-\$1-rcv;
#X obj 14 227 sel 0 1 2 3 4, f 37;
#X msg 168 252 random;
#X obj 14 286 symbol;
#X msg 14 253 constant;
#X msg 14 311 label \$1;
#X obj 14 202 r panmode-\$1-snd;
#X obj 14 336 s panmode-\$1-rcv;
#X msg 83 252 osc;
#X msg 119 253 vague;
#X msg 221 252 rndflash;
#X obj 315 33 r motorspeed-\$1-snd;
#X obj 315 83 i;
#X obj 315 129 change;
#X obj 315 59 * 7.99;
#X msg 315 154 label motorspeed:\$1;
#X obj 315 179 s motorspeed-\$1-rcv;
#X obj 315 106 + 1;
#X obj 14 389 sel 0 1 2 3 4, f 37;
#X msg 168 414 random;
#X obj 14 448 symbol;
#X msg 14 415 constant;
#X msg 14 473 label \$1;
#X msg 83 414 osc;
#X msg 119 415 vague;
#X msg 221 414 rndflash;
#X obj 14 364 r tiltmode-\$1-snd;
#X obj 14 498 s tiltmode-\$1-rcv;
#X obj 138 13 r lummode-\$1-rcv;
#X obj 138 38 route float;
#X obj 138 179 r panmode-\$1-rcv;
#X obj 138 202 route float;
#X obj 142 343 r tiltmode-\$1-rcv;
#X obj 142 366 route float;
#X connect 0 0 6 0;
#X connect 0 1 1 0;
#X connect 0 2 2 0;
#X connect 0 3 3 0;
#X connect 0 4 4 0;
#X connect 1 0 5 0;
#X connect 2 0 5 0;
#X connect 3 0 5 0;
#X connect 4 0 5 0;
#X connect 5 0 7 0;
#X connect 6 0 5 0;
#X connect 7 0 9 0;
#X connect 8 0 0 0;
#X connect 10 0 13 0;
#X connect 10 1 17 0;
#X connect 10 2 18 0;
#X connect 10 3 11 0;
#X connect 10 4 19 0;
#X connect 11 0 12 0;
#X connect 12 0 14 0;
#X connect 13 0 12 0;
#X connect 14 0 16 0;
#X connect 15 0 10 0;
#X connect 17 0 12 0;
#X connect 18 0 12 0;
#X connect 19 0 12 0;
#X connect 20 0 23 0;
#X connect 21 0 26 0;
#X connect 22 0 24 0;
#X connect 23 0 21 0;
#X connect 24 0 25 0;
#X connect 26 0 22 0;
#X connect 27 0 30 0;
#X connect 27 1 32 0;
#X connect 27 2 33 0;
#X connect 27 3 28 0;
#X connect 27 4 34 0;
#X connect 28 0 29 0;
#X connect 29 0 31 0;
#X connect 30 0 29 0;
#X connect 31 0 36 0;
#X connect 32 0 29 0;
#X connect 33 0 29 0;
#X connect 34 0 29 0;
#X connect 35 0 27 0;
#X connect 37 0 38 0;
#X connect 39 0 40 0;
#X connect 41 0 42 0;
#X restore 296 11 pd labels;
#N canvas 2539 538 950 643 tilt-modes 0;
#X obj 99 67 r tiltmode-\$1-snd;
#X obj 36 41 r tilt-\$1-snd;
#X obj 18 16 r update-bang;
#X obj 18 66 f;
#X obj 18 91 list prepend;
#X obj 18 116 route 0 1 2 3 4, f 111;
#X obj 285 34 r tilt-\$1-val;
#X obj 285 84 s tiltvu-\$1-rcv;
#X obj 285 59 spigot;
#X obj 336 60 r vu-on;
#X obj 18 602 s tilt-\$1-val;
#X obj 50 150 r tilt-\$1-val;
#X obj 18 207 +, f 5;
#X obj 18 151 -;
#X obj 18 232 change;
#X obj 125 195 t f b;
#X obj 18 182 * 0.05;
#X obj 157 220 f;
#X obj 157 245 +, f 5;
#X obj 157 270 fmod 1;
#X obj 157 295 * 6.28;
#X obj 157 320 sin;
#X obj 189 219 * 0.1;
#X obj 189 169 r tiltmode_speed-\$1-snd;
#X obj 189 194 pow 2;
#X obj 157 345 *, f 8;
#X obj 210 270 r tiltmode_amp-\$1-snd;
#X obj 125 371 +, f 5;
#X obj 210 295 pow 2;
#X obj 210 320 * 0.5;
#X obj 373 183 t f b;
#X obj 373 496 +, f 5;
#X obj 405 420 +, f 5;
#X obj 405 364 -;
#X obj 405 395 * 0.05;
#X obj 437 363 f;
#X obj 511 161 r tiltmode_speed-\$1-snd;
#X obj 405 210 random 1e+06;
#X obj 405 235 moses 500000;
#X obj 405 284 random 2e+06;
#X obj 405 309 / 1e+06;
#X obj 405 260 b;
#X obj 405 445 t f f;
#X obj 405 470 *;
#X obj 459 399 r tiltmode_amp-\$1-snd;
#X obj 459 424 pow 2;
#X obj 459 449 * 0.5;
#X obj 485 372 * 0.1;
#X obj 511 185 pow 2;
#X obj 501 226 * 500000;
#X obj 445 258 b;
#X obj 638 201 t f b;
#X obj 638 482 +, f 5;
#X obj 766 194 r tiltmode_speed-\$1-snd;
#X obj 670 228 random 1e+06;
#X obj 670 253 moses 500000;
#X obj 670 302 random 2e+06;
#X obj 670 327 / 1e+06;
#X obj 670 278 b;
#X obj 670 456 *;
#X obj 688 379 r tiltmode_amp-\$1-snd;
#X obj 688 404 pow 2;
#X obj 688 429 * 0.5;
#X obj 766 218 pow 2;
#X obj 766 244 * 500000;
#X obj 710 276 b;
#X obj 405 335 - 1;
#X obj 670 353 - 1;
#X connect 0 0 4 1;
#X connect 1 0 3 1;
#X connect 2 0 3 0;
#X connect 3 0 4 0;
#X connect 4 0 5 0;
#X connect 5 0 13 0;
#X connect 5 1 15 0;
#X connect 5 2 15 0;
#X connect 5 3 30 0;
#X connect 5 4 51 0;
#X connect 6 0 8 0;
#X connect 8 0 7 0;
#X connect 9 0 8 1;
#X connect 11 0 13 1;
#X connect 11 0 12 1;
#X connect 12 0 14 0;
#X connect 13 0 16 0;
#X connect 14 0 10 0;
#X connect 15 0 27 0;
#X connect 15 1 17 0;
#X connect 16 0 12 0;
#X connect 17 0 18 0;
#X connect 18 0 19 0;
#X connect 19 0 17 1;
#X connect 19 0 20 0;
#X connect 20 0 21 0;
#X connect 21 0 25 0;
#X connect 22 0 18 1;
#X connect 23 0 24 0;
#X connect 24 0 22 0;
#X connect 25 0 27 1;
#X connect 26 0 28 0;
#X connect 27 0 10 0;
#X connect 28 0 29 0;
#X connect 29 0 25 1;
#X connect 30 0 31 0;
#X connect 30 1 37 0;
#X connect 31 0 10 0;
#X connect 32 0 42 0;
#X connect 33 0 34 0;
#X connect 34 0 32 0;
#X connect 35 0 33 1;
#X connect 35 0 32 1;
#X connect 36 0 48 0;
#X connect 37 0 38 0;
#X connect 38 0 41 0;
#X connect 38 1 50 0;
#X connect 39 0 40 0;
#X connect 40 0 66 0;
#X connect 41 0 39 0;
#X connect 42 0 43 0;
#X connect 42 1 35 0;
#X connect 43 0 31 1;
#X connect 44 0 45 0;
#X connect 45 0 46 0;
#X connect 46 0 43 1;
#X connect 47 0 34 1;
#X connect 48 0 47 0;
#X connect 48 0 49 0;
#X connect 49 0 38 1;
#X connect 50 0 40 0;
#X connect 51 0 52 0;
#X connect 51 1 54 0;
#X connect 52 0 10 0;
#X connect 53 0 63 0;
#X connect 54 0 55 0;
#X connect 55 0 58 0;
#X connect 55 1 65 0;
#X connect 56 0 57 0;
#X connect 57 0 67 0;
#X connect 58 0 56 0;
#X connect 59 0 52 1;
#X connect 60 0 61 0;
#X connect 61 0 62 0;
#X connect 62 0 59 1;
#X connect 63 0 64 0;
#X connect 64 0 55 1;
#X connect 65 0 57 0;
#X connect 66 0 33 0;
#X connect 67 0 59 0;
#X restore 300 344 pd tilt-modes;
#X obj 210 12 tgl 18 0 onetoall-\$1-snd onetoall-\$1-rcv 1->all 20 9 0 12 #fcfcfc #000000 #000000 0 1;
#X obj 296 39 api main panmode-\$1 panmode-\$1;
#X obj 297 121 api main lummode-\$1 lummode-\$1;
#N canvas 2015 927 450 300 pan-osc 1;
#X obj 143 142 f;
#X obj 143 167 +, f 5;
#X obj 143 192 fmod 1;
#X obj 175 141 * 0.1;
#X obj 175 116 pow 2;
#X obj 175 91 r panmode_speed-\$1-snd;
#X obj 143 59 r update-bang;
#X obj 143 219 s panmode_speed-\$1-phase;
#X connect 0 0 1 0;
#X connect 1 0 2 0;
#X connect 2 0 0 1;
#X connect 2 0 7 0;
#X connect 3 0 1 1;
#X connect 4 0 3 0;
#X connect 5 0 4 0;
#X connect 6 0 0 0;
#X restore 300 371 pd pan-osc;
#X coords 0 -1 1 1 270 525 1 10 10;
