#N canvas 52 98 631 556 12;
#X obj 11 27 cnv 20 268 507 empty empty empty 20 12 0 12 #7c7c7c #404040 0;
#X obj 14 32 lamp \$1 1;
#X obj 18 454 hsl 250 20 0 1 0 0 tilt-\$1-snd tilt-\$1-rcv tilt 100 10 0 12 #00f8fc #000000 #000000 0 1;
#X obj 18 477 hsl 250 8 0 1 0 0 tiltvu-\$1-snd tiltvu-\$1-rcv empty -2 -10 0 12 #c4fcfc #000000 #000000 0 1;
#X obj 15 410 hradio 15 1 0 5 panmode-\$1-snd panmode-\$1-rcv random 0 -5 0 8 #00fc04 #000000 #fcfcfc 0;
#X obj 119 405 hsl 70 20 0 1 0 0 panmode_amp-\$1-snd panmode_amp-\$1-rcv amp 15 7 0 10 #00fc04 #000000 #7c7c7c 0 1;
#X obj 15 434 hradio 15 1 0 5 lummode-\$1-snd lummode-\$1-rcv flash 0 -5 0 8 #f8fc00 #000000 #fcfcfc 0;
#X obj 119 429 hsl 70 20 0 1 0 0 lummode_amp-\$1-snd lummode_amp-\$1-rcv amp 15 7 0 10 #f8fc00 #000000 #606060 0 1;
#X obj 198 405 hsl 70 20 0 1 0 0 panmode_speed-\$1-snd panmode_speed-\$1-rcv speed 10 7 0 10 #00fc04 #000000 #7c7c7c 0 1;
#X obj 198 429 hsl 70 20 0 1 0 0 lummode_speed-\$1-snd lummode_speed-\$1-rcv speed 10 7 0 10 #f8fc00 #000000 #606060 0 1;
#X obj 15 495 hradio 15 1 0 5 tiltmode-\$1-snd tiltmode-\$1-rcv rndflash 0 -5 0 8 #00f8fc #000000 #fcfcfc 0;
#X obj 119 490 hsl 70 20 0 1 0 0 tiltmode_amp-\$1-snd tiltmode_amp-\$1-rcv amp 15 7 0 10 #00f8fc #000000 #7c7c7c 0 1;
#X obj 198 490 hsl 70 20 0 1 0 0 tiltmode_speed-\$1-snd tiltmode_speed-\$1-rcv speed 10 7 0 10 #00f8fc #000000 #7c7c7c 0 1;
#X obj 299 197 apf main tilt-\$1 tilt-\$1;
#X obj 16 513 hsl 180 20 0 1 0 0 motorspeed-\$1-snd motorspeed-\$1-rcv motorspeed:3 50 10 0 12 #fc8000 #000000 #000000 0 1;
#X obj 300 249 apf main tiltmode_amp-\$1 tiltmode_amp-\$1;
#X obj 300 272 apf main tiltmode_speed-\$1 tiltmode_speed-\$1;
#X obj 300 304 apf main motorspeed-\$1 motorspeed-\$1;
#X obj 14 125 lamp \$1 2;
#X obj 14 218 lamp \$1 3;
#X obj 14 311 lamp \$1 4;
#X obj 297 63 apf main panmode_amp-\$1 panmode_amp-\$1;
#X obj 297 87 apf main panmode_speed-\$1 panmode_speed-\$1;
#X obj 298 146 apf main lummode_amp-\$1 lummode_amp-\$1;
#X obj 298 168 apf main lummode_speed-\$1 lummode_speed-\$1;
#N canvas 2337 698 524 547 labels 0;
#X obj 14 60 sel 0 1 2 3 4, f 37;
#X msg 83 85 avant;
#X msg 128 85 arriere;
#X msg 188 85 random;
#X msg 243 85 flash;
#X obj 14 119 symbol;
#X msg 14 86 constant;
#X msg 14 144 label \$1;
#X obj 14 35 r lummode-\$1-snd;
#X obj 14 169 s lummode-\$1-rcv;
#X obj 14 227 sel 0 1 2 3 4, f 37;
#X msg 168 252 random;
#X obj 14 286 symbol;
#X msg 14 253 constant;
#X msg 14 311 label \$1;
#X obj 14 202 r panmode-\$1-snd;
#X obj 14 336 s panmode-\$1-rcv;
#X msg 83 252 osc;
#X msg 119 253 vague;
#X msg 221 252 rndflash;
#X obj 315 33 r motorspeed-\$1-snd;
#X obj 315 83 i;
#X obj 315 129 change;
#X obj 315 59 * 7.99;
#X msg 315 154 label motorspeed:\$1;
#X obj 315 179 s motorspeed-\$1-rcv;
#X obj 315 106 + 1;
#X obj 14 389 sel 0 1 2 3 4, f 37;
#X msg 168 414 random;
#X obj 14 448 symbol;
#X msg 14 415 constant;
#X msg 14 473 label \$1;
#X msg 83 414 osc;
#X msg 119 415 vague;
#X msg 221 414 rndflash;
#X obj 14 364 r tiltmode-\$1-snd;
#X obj 14 498 s tiltmode-\$1-rcv;
#X obj 138 13 r lummode-\$1-rcv;
#X obj 138 38 route float;
#X obj 138 179 r panmode-\$1-rcv;
#X obj 138 202 route float;
#X obj 142 343 r tiltmode-\$1-rcv;
#X obj 142 366 route float;
#X obj 366 128 s motorspeed-\$1-val;
#X connect 0 0 6 0;
#X connect 0 1 1 0;
#X connect 0 2 2 0;
#X connect 0 3 3 0;
#X connect 0 4 4 0;
#X connect 1 0 5 0;
#X connect 2 0 5 0;
#X connect 3 0 5 0;
#X connect 4 0 5 0;
#X connect 5 0 7 0;
#X connect 6 0 5 0;
#X connect 7 0 9 0;
#X connect 8 0 0 0;
#X connect 10 0 13 0;
#X connect 10 1 17 0;
#X connect 10 2 18 0;
#X connect 10 3 11 0;
#X connect 10 4 19 0;
#X connect 11 0 12 0;
#X connect 12 0 14 0;
#X connect 13 0 12 0;
#X connect 14 0 16 0;
#X connect 15 0 10 0;
#X connect 17 0 12 0;
#X connect 18 0 12 0;
#X connect 19 0 12 0;
#X connect 20 0 23 0;
#X connect 21 0 26 0;
#X connect 22 0 24 0;
#X connect 22 0 43 0;
#X connect 23 0 21 0;
#X connect 24 0 25 0;
#X connect 26 0 22 0;
#X connect 27 0 30 0;
#X connect 27 1 32 0;
#X connect 27 2 33 0;
#X connect 27 3 28 0;
#X connect 27 4 34 0;
#X connect 28 0 29 0;
#X connect 29 0 31 0;
#X connect 30 0 29 0;
#X connect 31 0 36 0;
#X connect 32 0 29 0;
#X connect 33 0 29 0;
#X connect 34 0 29 0;
#X connect 35 0 27 0;
#X connect 37 0 38 0;
#X connect 39 0 40 0;
#X connect 41 0 42 0;
#X restore 296 11 pd labels;
#N canvas 252 92 954 662 tilt-modes 0;
#X obj 36 41 r tilt-\$1-snd;
#X obj 18 16 r update-bang;
#X obj 18 66 f;
#X obj 281 14 r tilt-\$1-val;
#X obj 281 92 s tiltvu-\$1-rcv;
#X obj 281 39 spigot;
#X obj 332 40 r vu-on;
#X obj 18 586 s tilt-\$1-val;
#X obj 61 149 r tilt-\$1-val;
#X obj 29 206 +, f 5;
#X obj 29 150 -;
#X obj 29 231 change;
#X obj 125 195 t f b;
#X obj 29 181 * 0.05;
#X obj 157 220 f;
#X obj 157 245 +, f 5;
#X obj 157 270 fmod 1;
#X obj 157 295 * 6.28;
#X obj 157 320 sin;
#X obj 189 219 * 0.1;
#X obj 189 169 r tiltmode_speed-\$1-snd;
#X obj 189 194 pow 2;
#X obj 157 345 *, f 8;
#X obj 125 371 +, f 5;
#X obj 210 295 pow 2;
#X obj 210 320 * 0.5;
#X obj 373 183 t f b;
#X obj 373 496 +, f 5;
#X obj 405 420 +, f 5;
#X obj 405 364 -;
#X obj 405 395 * 0.05;
#X obj 437 363 f;
#X obj 511 161 r tiltmode_speed-\$1-snd;
#X obj 405 210 random 1e+06;
#X obj 405 235 moses 500000;
#X obj 405 284 random 2e+06;
#X obj 405 309 / 1e+06;
#X obj 405 260 b;
#X obj 405 445 t f f;
#X obj 405 470 *;
#X obj 459 424 pow 2;
#X obj 459 449 * 0.5;
#X obj 485 372 * 0.1;
#X obj 511 185 pow 2;
#X obj 501 226 * 500000;
#X obj 445 258 b;
#X obj 638 201 t f b;
#X obj 638 482 +, f 5;
#X obj 766 194 r tiltmode_speed-\$1-snd;
#X obj 670 228 random 1e+06;
#X obj 670 253 moses 500000;
#X obj 670 302 random 2e+06;
#X obj 670 327 / 1e+06;
#X obj 670 278 b;
#X obj 670 456 *;
#X obj 688 404 pow 2;
#X obj 688 429 * 0.5;
#X obj 766 218 pow 2;
#X obj 766 244 * 500000;
#X obj 710 276 b;
#X obj 405 335 - 1;
#X obj 670 353 - 1;
#X obj 18 118 mode_pre tiltmode-\$1, f 130;
#X obj 18 557 mode_post tiltmode-\$1, f 131;
#X obj 210 270 r tiltmode_amp-\$1-val;
#X obj 459 399 r tiltmode_amp-\$1-val;
#X obj 688 379 r tiltmode_amp-\$1-val;
#X obj 281 66 change;
#X connect 0 0 2 1;
#X connect 1 0 2 0;
#X connect 2 0 62 0;
#X connect 3 0 5 0;
#X connect 5 0 67 0;
#X connect 6 0 5 1;
#X connect 8 0 10 1;
#X connect 8 0 9 1;
#X connect 9 0 11 0;
#X connect 10 0 13 0;
#X connect 11 0 63 0;
#X connect 12 0 23 0;
#X connect 12 1 14 0;
#X connect 13 0 9 0;
#X connect 14 0 15 0;
#X connect 15 0 16 0;
#X connect 16 0 14 1;
#X connect 16 0 17 0;
#X connect 17 0 18 0;
#X connect 18 0 22 0;
#X connect 19 0 15 1;
#X connect 20 0 21 0;
#X connect 21 0 19 0;
#X connect 22 0 23 1;
#X connect 23 0 63 1;
#X connect 23 0 63 2;
#X connect 24 0 25 0;
#X connect 25 0 22 1;
#X connect 26 0 27 0;
#X connect 26 1 33 0;
#X connect 27 0 63 3;
#X connect 28 0 38 0;
#X connect 29 0 30 0;
#X connect 30 0 28 0;
#X connect 31 0 29 1;
#X connect 31 0 28 1;
#X connect 32 0 43 0;
#X connect 33 0 34 0;
#X connect 34 0 37 0;
#X connect 34 1 45 0;
#X connect 35 0 36 0;
#X connect 36 0 60 0;
#X connect 37 0 35 0;
#X connect 38 0 39 0;
#X connect 38 1 31 0;
#X connect 39 0 27 1;
#X connect 40 0 41 0;
#X connect 41 0 39 1;
#X connect 42 0 30 1;
#X connect 43 0 42 0;
#X connect 43 0 44 0;
#X connect 44 0 34 1;
#X connect 45 0 36 0;
#X connect 46 0 47 0;
#X connect 46 1 49 0;
#X connect 47 0 63 4;
#X connect 48 0 57 0;
#X connect 49 0 50 0;
#X connect 50 0 53 0;
#X connect 50 1 59 0;
#X connect 51 0 52 0;
#X connect 52 0 61 0;
#X connect 53 0 51 0;
#X connect 54 0 47 1;
#X connect 55 0 56 0;
#X connect 56 0 54 1;
#X connect 57 0 58 0;
#X connect 58 0 50 1;
#X connect 59 0 52 0;
#X connect 60 0 29 0;
#X connect 61 0 54 0;
#X connect 62 0 63 0;
#X connect 62 1 12 0;
#X connect 62 2 12 0;
#X connect 62 3 26 0;
#X connect 62 4 46 0;
#X connect 63 0 7 0;
#X connect 64 0 24 0;
#X connect 65 0 40 0;
#X connect 66 0 55 0;
#X connect 67 0 4 0;
#X restore 299 410 pd tilt-modes;
#X obj 210 12 tgl 18 0 onetoall-\$1-snd onetoall-\$1-rcv 1->all 20 9 0 12 #fcfcfc #000000 #000000 0 1;
#X obj 299 224 apf main tiltmode-\$1 tiltmode-\$1;
#X obj 297 121 apf main lummode-\$1 lummode-\$1;
#X obj 296 39 apf main panmode-\$1 panmode-\$1;
#N canvas 738 307 627 436 dmx 0;
#X obj 27 21 r dmx-\$1;
#X obj 27 74 route p l, f 37;
#X obj 27 48 list trim;
#X obj 339 113 change;
#X obj 339 88 i;
#X obj 339 13 r tilt-\$1-val;
#X obj 339 38 * 65535;
#X obj 339 63 clip 0 65535;
#X obj 155 112 dmx8 1 \$2;
#X obj 27 286 dmx16 9 \$2;
#X msg 339 138 1 \$1;
#X obj 339 166 dmx16 7 \$2;
#X msg 474 89 1 \$1;
#X obj 474 14 r motorspeed-\$1-val;
#X obj 474 64 * 32;
#X obj 474 39 - 0.5;
#X obj 474 117 dmx8 18 \$2;
#X msg 339 299 1 \$1;
#X obj 339 323 dmx8 17 \$2;
#X obj 339 230 hradio 15 1 0 3 empty empty empty 0 -8 0 10 #fcfcfc #000000 #000000 0;
#X obj 339 250 * 64;
#X obj 339 274 + 32;
#X obj 128 174 unpack f f;
#X obj 128 199 t f f;
#X obj 128 316 pack f f;
#X obj 160 221 mod 2;
#X obj 160 245 sel 0 1;
#X obj 160 272 f;
#X obj 190 273 f;
#X obj 218 201 * -1;
#X obj 218 225 + 65535;
#X obj 339 204 r panmotmode-\$1-snd;
#X connect 0 0 2 0;
#X connect 1 0 9 0;
#X connect 1 1 8 0;
#X connect 2 0 1 0;
#X connect 3 0 10 0;
#X connect 4 0 3 0;
#X connect 5 0 6 0;
#X connect 6 0 7 0;
#X connect 7 0 4 0;
#X connect 10 0 11 0;
#X connect 12 0 16 0;
#X connect 13 0 15 0;
#X connect 14 0 12 0;
#X connect 15 0 14 0;
#X connect 17 0 18 0;
#X connect 19 0 20 0;
#X connect 20 0 21 0;
#X connect 21 0 17 0;
#X connect 22 0 23 0;
#X connect 22 1 27 1;
#X connect 22 1 29 0;
#X connect 23 0 24 0;
#X connect 23 1 25 0;
#X connect 25 0 26 0;
#X connect 26 0 27 0;
#X connect 26 1 28 0;
#X connect 27 0 24 1;
#X connect 28 0 24 1;
#X connect 29 0 30 0;
#X connect 30 0 28 1;
#X connect 31 0 19 0;
#X restore 300 448 pd dmx;
#X obj 208 514 hradio 20 1 0 3 panmotmode-\$1-snd panmotmode-\$1-rcv pan_mode 4 10 0 10 #00fc04 #000000 #f8fc00 0;
#X obj 300 335 apf main panmotmode-\$1 panmotmode-\$1;
#N canvas 577 227 550 300 pan-osc_movmaster 0;
#X obj 24 117 f;
#X obj 24 142 +, f 5;
#X obj 24 167 fmod 1;
#X obj 56 116 * 0.1;
#X obj 56 91 pow 2;
#X obj 56 66 r panmode_speed-\$1-snd;
#X obj 24 34 r update-bang;
#X obj 24 194 s panmode_speed-\$1-phase;
#X obj 257 31 r panmode_amp-\$1-snd;
#X obj 257 56 *;
#X obj 286 56 t b f;
#X obj 329 57 r movmaster-snd;
#X obj 257 83 s panmode_amp-\$1-val;
#X obj 257 144 *;
#X obj 286 144 t b f;
#X obj 329 145 r movmaster-snd;
#X obj 257 119 r tiltmode_amp-\$1-snd;
#X obj 257 171 s tiltmode_amp-\$1-val;
#X connect 0 0 1 0;
#X connect 1 0 2 0;
#X connect 2 0 0 1;
#X connect 2 0 7 0;
#X connect 3 0 1 1;
#X connect 4 0 3 0;
#X connect 5 0 4 0;
#X connect 6 0 0 0;
#X connect 8 0 9 0;
#X connect 9 0 12 0;
#X connect 10 0 9 0;
#X connect 10 1 9 1;
#X connect 11 0 10 0;
#X connect 13 0 17 0;
#X connect 14 0 13 0;
#X connect 14 1 13 1;
#X connect 15 0 14 0;
#X connect 16 0 13 0;
#X restore 299 378 pd pan-osc_movmaster;
#X coords 0 -1 1 1 270 525 1 10 10;
