#N canvas 2899 598 269 381 12;
#X obj 26 46 unpack f f;
#X obj 26 150 + \$2;
#X obj 26 19 inlet;
#X obj 26 122 + \$1;
#X obj 58 256 pack f f;
#X obj 26 202 t f f;
#X obj 58 228 + 1;
#X obj 26 307 pack f f;
#X obj 111 231 mod 256;
#X obj 79 282 div 256;
#X obj 58 348 s 2DMX;
#X obj 26 71 - 1;
#X obj 26 96 * 2;
#X obj 26 176 - 1;
#X connect 0 0 11 0;
#X connect 0 1 8 0;
#X connect 0 1 9 0;
#X connect 1 0 13 0;
#X connect 2 0 0 0;
#X connect 3 0 1 0;
#X connect 4 0 10 0;
#X connect 5 0 7 0;
#X connect 5 1 6 0;
#X connect 6 0 4 0;
#X connect 7 0 10 0;
#X connect 8 0 4 1;
#X connect 9 0 7 1;
#X connect 11 0 12 0;
#X connect 12 0 3 0;
#X connect 13 0 5 0;
