#N canvas 2495 800 450 300 12;
#X obj 87 74 unpack f f;
#X obj 87 155 + \$2;
#X obj 87 180 pack f f;
#X obj 87 47 inlet;
#X obj 87 127 + \$1;
#X obj 87 205 s 2DMX;
#X obj 87 99 - 2;
#X connect 0 0 6 0;
#X connect 0 1 2 1;
#X connect 1 0 2 0;
#X connect 2 0 5 0;
#X connect 3 0 0 0;
#X connect 4 0 1 0;
#X connect 6 0 4 0;
