#N canvas 52 98 622 334 12;
#X obj 11 27 cnv 20 238 110 empty empty empty 20 12 0 12 -66577 -66577
0;
#X obj 15 40 hradio 15 1 0 5 panmode-\$1-snd panmode-\$1-rcv random
0 -5 0 8 -4034 -1 -262144 3;
#X obj 96 35 hsl 70 20 0 1 0 0 panmode_amp-\$1-snd panmode_amp-\$1-rcv
amp 15 7 0 10 -4034 -1 -128992 6900 1;
#X obj 15 64 hradio 15 1 0 5 lummode-\$1-snd lummode-\$1-rcv random
0 -5 0 8 -257985 -1 -262144 3;
#X obj 96 59 hsl 70 20 0 1 0 0 lummode_amp-\$1-snd lummode_amp-\$1-rcv
amp 15 7 0 10 -257985 -1 -99865 2900 1;
#X obj 175 35 hsl 70 20 0 1 0 0 panmode_speed-\$1-snd panmode_speed-\$1-rcv
speed 10 7 0 10 -4034 -1 -128992 1500 1;
#X obj 175 59 hsl 70 20 0 1 0 0 lummode_speed-\$1-snd lummode_speed-\$1-rcv
speed 10 7 0 10 -257985 -1 -99865 4000 1;
#X obj 15 95 hradio 15 1 0 5 tiltmode-\$1-snd tiltmode-\$1-rcv random
0 -5 0 8 -4032 -1 -262144 3;
#X obj 96 90 hsl 70 20 0 1 0 0 tiltmode_amp-\$1-snd tiltmode_amp-\$1-rcv
amp 15 7 0 10 -4032 -1 -128992 6200 1;
#X obj 175 90 hsl 70 20 0 1 0 0 tiltmode_speed-\$1-snd tiltmode_speed-\$1-rcv
speed 10 7 0 10 -4032 -1 -128992 1300 1;
#X obj 16 113 hsl 160 20 0 1 0 0 motorspeed-\$1-snd motorspeed-\$1-rcv
motorspeed:4 50 10 0 12 -260097 -1 -1 7200 1;
#N canvas 2337 698 524 547 labels 0;
#X obj 14 60 sel 0 1 2 3 4, f 37;
#X msg 83 85 avant;
#X msg 128 85 arriere;
#X msg 188 85 random;
#X msg 243 85 flash;
#X obj 14 119 symbol;
#X msg 14 86 constant;
#X msg 14 144 label \$1;
#X obj 14 35 r lummode-\$1-snd;
#X obj 14 169 s lummode-\$1-rcv;
#X obj 14 227 sel 0 1 2 3 4, f 37;
#X msg 168 252 random;
#X obj 14 286 symbol;
#X msg 14 253 constant;
#X msg 14 311 label \$1;
#X obj 14 202 r panmode-\$1-snd;
#X obj 14 336 s panmode-\$1-rcv;
#X msg 83 252 osc;
#X msg 119 253 vague;
#X msg 221 252 rndflash;
#X obj 315 33 r motorspeed-\$1-snd;
#X obj 315 83 i;
#X obj 315 129 change;
#X obj 315 59 * 7.99;
#X msg 315 154 label motorspeed:\$1;
#X obj 315 179 s motorspeed-\$1-rcv;
#X obj 315 106 + 1;
#X obj 14 389 sel 0 1 2 3 4, f 37;
#X msg 168 414 random;
#X obj 14 448 symbol;
#X msg 14 415 constant;
#X msg 14 473 label \$1;
#X msg 83 414 osc;
#X msg 119 415 vague;
#X msg 221 414 rndflash;
#X obj 14 364 r tiltmode-\$1-snd;
#X obj 14 498 s tiltmode-\$1-rcv;
#X obj 138 13 r lummode-\$1-rcv;
#X obj 138 38 route float;
#X obj 138 179 r panmode-\$1-rcv;
#X obj 138 202 route float;
#X obj 142 343 r tiltmode-\$1-rcv;
#X obj 142 366 route float;
#X obj 366 128 s motorspeed-\$1-val;
#X connect 0 0 6 0;
#X connect 0 1 1 0;
#X connect 0 2 2 0;
#X connect 0 3 3 0;
#X connect 0 4 4 0;
#X connect 1 0 5 0;
#X connect 2 0 5 0;
#X connect 3 0 5 0;
#X connect 4 0 5 0;
#X connect 5 0 7 0;
#X connect 6 0 5 0;
#X connect 7 0 9 0;
#X connect 8 0 0 0;
#X connect 10 0 13 0;
#X connect 10 1 17 0;
#X connect 10 2 18 0;
#X connect 10 3 11 0;
#X connect 10 4 19 0;
#X connect 11 0 12 0;
#X connect 12 0 14 0;
#X connect 13 0 12 0;
#X connect 14 0 16 0;
#X connect 15 0 10 0;
#X connect 17 0 12 0;
#X connect 18 0 12 0;
#X connect 19 0 12 0;
#X connect 20 0 23 0;
#X connect 21 0 26 0;
#X connect 22 0 24 0;
#X connect 22 0 43 0;
#X connect 23 0 21 0;
#X connect 24 0 25 0;
#X connect 26 0 22 0;
#X connect 27 0 30 0;
#X connect 27 1 32 0;
#X connect 27 2 33 0;
#X connect 27 3 28 0;
#X connect 27 4 34 0;
#X connect 28 0 29 0;
#X connect 29 0 31 0;
#X connect 30 0 29 0;
#X connect 31 0 36 0;
#X connect 32 0 29 0;
#X connect 33 0 29 0;
#X connect 34 0 29 0;
#X connect 35 0 27 0;
#X connect 37 0 38 0;
#X connect 39 0 40 0;
#X connect 41 0 42 0;
#X restore 12 148 pd labels;
#N canvas 508 60 693 417 pan-osc_movmaster 0;
#X obj 24 97 f;
#X obj 24 122 +, f 5;
#X obj 24 147 fmod 1;
#X obj 56 96 * 0.1;
#X obj 56 71 pow 2;
#X obj 24 14 r update-bang;
#X obj 257 31 r panmode_amp-\$1-snd;
#X obj 257 56 *;
#X obj 286 56 t b f;
#X obj 257 144 *;
#X obj 286 144 t b f;
#X obj 257 119 r tiltmode_amp-\$1-snd;
#X obj 329 57 r movmasterH-snd;
#X obj 257 83 s panmode_amp-H-val;
#X obj 329 145 r movmasterH-snd;
#X obj 257 171 s tiltmode_amp-H-val;
#X obj 462 31 r panmode_amp-\$1-snd;
#X obj 462 56 *;
#X obj 491 56 t b f;
#X obj 462 144 *;
#X obj 491 144 t b f;
#X obj 462 119 r tiltmode_amp-\$1-snd;
#X obj 462 172 s tiltmode_amp-B-val;
#X obj 534 145 r movmasterB-snd;
#X obj 534 57 r movmasterB-snd;
#X obj 462 83 s panmode_amp-B-val;
#X obj 56 46 r panmode_speed-H-val;
#X obj 24 174 s panmode_speed-H-phase;
#X obj 24 305 f;
#X obj 24 330 +, f 5;
#X obj 24 355 fmod 1;
#X obj 56 304 * 0.1;
#X obj 56 279 pow 2;
#X obj 24 222 r update-bang;
#X obj 56 254 r panmode_speed-B-val;
#X obj 24 380 s panmode_speed-B-phase;
#X obj 260 204 speedmaster panmode H;
#X obj 260 229 speedmaster tiltmode H;
#X obj 260 253 speedmaster lummode H;
#X obj 260 290 speedmaster panmode B;
#X obj 260 315 speedmaster tiltmode B;
#X obj 260 339 speedmaster lummode B;
#X connect 0 0 1 0;
#X connect 1 0 2 0;
#X connect 2 0 0 1;
#X connect 2 0 27 0;
#X connect 3 0 1 1;
#X connect 4 0 3 0;
#X connect 5 0 0 0;
#X connect 6 0 7 0;
#X connect 7 0 13 0;
#X connect 8 0 7 0;
#X connect 8 1 7 1;
#X connect 9 0 15 0;
#X connect 10 0 9 0;
#X connect 10 1 9 1;
#X connect 11 0 9 0;
#X connect 12 0 8 0;
#X connect 14 0 10 0;
#X connect 16 0 17 0;
#X connect 17 0 25 0;
#X connect 18 0 17 0;
#X connect 18 1 17 1;
#X connect 19 0 22 0;
#X connect 20 0 19 0;
#X connect 20 1 19 1;
#X connect 21 0 19 0;
#X connect 23 0 20 0;
#X connect 24 0 18 0;
#X connect 26 0 4 0;
#X connect 28 0 29 0;
#X connect 29 0 30 0;
#X connect 30 0 28 1;
#X connect 30 0 35 0;
#X connect 31 0 29 1;
#X connect 32 0 31 0;
#X connect 33 0 28 0;
#X connect 34 0 32 0;
#X restore 93 149 pd pan-osc_movmaster;
#X obj 267 38 apf main\$3 panmode-\$1 panmode-\$1;
#X obj 268 62 apf main\$3 panmode_amp-\$1 panmode_amp-\$1;
#X obj 268 86 apf main\$3 panmode_speed-\$1 panmode_speed-\$1;
#X obj 268 120 apf main\$3 lummode-\$1 lummode-\$1;
#X obj 269 145 apf main\$3 lummode_amp-\$1 lummode_amp-\$1;
#X obj 269 167 apf main\$3 lummode_speed-\$1 lummode_speed-\$1;
#X obj 268 206 apf main\$3 tiltmode-\$1 tiltmode-\$1;
#X obj 269 231 apf main\$3 tiltmode_amp-\$1 tiltmode_amp-\$1;
#X obj 269 254 apf main\$3 tiltmode_speed-\$1 tiltmode_speed-\$1;
#X obj 269 286 list prepend apf main\$3 motorspeed-\$1 motorspeed-\$1
;
#X coords 0 -1 1 1 240 128 1 10 10;
