#N canvas 831 238 534 505 12;
#X obj 11 11 cnv 20 258 86 empty empty lamp\\\ \$2 5 8 0 12 #e0e0e0 #404040 0;
#X obj 15 28 hsl 250 20 0 1 0 0 pan-\$1-\$2-snd pan-\$1-\$2-rcv pan 100 10 0 12 #00fc04 #000000 #000000 0 1;
#X obj 15 51 hsl 250 8 0 1 0 0 panvu-\$1-\$2-snd panvu-\$1-\$2-rcv empty -2 -10 0 12 #c4fcc4 #000000 #000000 0 1;
#X obj 15 65 hsl 250 20 0 1 0 0 lum-\$1-\$2-snd lum-\$1-\$2-rcv lum 100 10 0 12 #f8fc00 #000000 #000000 0 1;
#X obj 15 88 hsl 250 8 0 1 0 0 lumvu-\$1-\$2-snd lumvu-\$1-\$2-rcv empty -2 -10 0 12 #fcfcc4 #000000 #000000 0 1;
#X obj 11 108 apf main pan-\$1-\$2 pan-\$1-\$2;
#X obj 11 133 apf main lum-\$1-\$2 lum-\$1-\$2;
#N canvas 119 37 1079 643 pan-modes 0;
#X obj 18 16 r update-bang;
#X obj 18 66 f;
#X obj 285 32 spigot;
#X obj 336 33 r vu-on;
#X obj 18 207 +, f 5;
#X obj 18 151 -;
#X obj 18 232 change;
#X obj 90 236 t f b;
#X obj 18 182 * 0.05;
#X obj 122 370 * 6.28;
#X obj 122 400 sin;
#X obj 122 425 *, f 8;
#X obj 90 451 +, f 5;
#X obj 175 375 pow 2;
#X obj 175 400 * 0.5;
#X obj 526 178 t f b;
#X obj 526 491 +, f 5;
#X obj 558 415 +, f 5;
#X obj 558 359 -;
#X obj 558 390 * 0.05;
#X obj 590 358 f;
#X obj 558 205 random 1e+06;
#X obj 558 230 moses 500000;
#X obj 558 279 random 2e+06;
#X obj 558 304 / 1e+06;
#X obj 558 255 b;
#X obj 558 440 t f f;
#X obj 558 465 *;
#X obj 612 419 pow 2;
#X obj 612 444 * 0.5;
#X obj 638 367 * 0.1;
#X obj 664 180 pow 2;
#X obj 654 221 * 500000;
#X obj 598 253 b;
#X obj 796 196 t f b;
#X obj 796 477 +, f 5;
#X obj 828 223 random 1e+06;
#X obj 828 248 moses 500000;
#X obj 828 297 random 2e+06;
#X obj 828 322 / 1e+06;
#X obj 828 273 b;
#X obj 828 451 *;
#X obj 846 399 pow 2;
#X obj 846 424 * 0.5;
#X obj 924 213 pow 2;
#X obj 924 239 * 500000;
#X obj 868 271 b;
#X obj 558 330 - 1;
#X obj 828 348 - 1;
#X obj 36 42 r pan-\$1-\$2-snd;
#X obj 285 7 r pan-\$1-\$2-val;
#X obj 285 84 s panvu-\$1-\$2-rcv;
#X obj 664 156 r panmode_speed-\$1-snd;
#X obj 924 189 r panmode_speed-\$1-snd;
#X obj 18 568 s pan-\$1-\$2-val;
#X obj 50 150 r pan-\$1-\$2-val;
#X obj 152 609 s pan-\$1-\$2-quad;
#X obj 160 460 cos;
#X obj 140 319 r panmode_speed-\$1-phase;
#X obj 122 344 f;
#X obj 18 117 mode_pre panmode-\$1 \$0, f 102;
#X obj 18 541 mode_post panmode-\$1 \$0, f 102;
#X obj 151 575 mode_post panmode-\$1 \$0, f 42;
#X obj 322 236 t f b;
#X obj 354 370 * 6.28;
#X obj 354 400 sin;
#X obj 354 425 *, f 8;
#X obj 322 451 +, f 5;
#X obj 407 375 pow 2;
#X obj 407 400 * 0.5;
#X obj 354 341 +;
#X obj 405 269 f \$2;
#X obj 392 460 cos;
#X obj 405 319 / 4;
#X obj 405 294 - 1;
#X obj 372 218 r panmode_speed-\$1-phase;
#X obj 354 311 f;
#X obj 405 244 loadbang;
#X floatatom 107 605 5 0 0 0 - - - 0;
#X obj 175 350 r panmode_amp-\$1-val;
#X floatatom 280 387 5 0 0 0 - - - 0;
#X obj 407 350 r panmode_amp-\$1-val;
#X obj 612 394 r panmode_amp-\$1-val;
#X obj 846 374 r panmode_amp-\$1-val;
#X obj 285 58 change;
#X connect 0 0 1 0;
#X connect 1 0 60 0;
#X connect 2 0 84 0;
#X connect 3 0 2 1;
#X connect 4 0 6 0;
#X connect 5 0 8 0;
#X connect 6 0 61 0;
#X connect 7 0 12 0;
#X connect 7 1 59 0;
#X connect 8 0 4 0;
#X connect 9 0 10 0;
#X connect 9 0 57 0;
#X connect 10 0 11 0;
#X connect 11 0 12 1;
#X connect 12 0 61 1;
#X connect 13 0 14 0;
#X connect 14 0 11 1;
#X connect 15 0 16 0;
#X connect 15 1 21 0;
#X connect 16 0 61 3;
#X connect 17 0 26 0;
#X connect 18 0 19 0;
#X connect 19 0 17 0;
#X connect 20 0 18 1;
#X connect 20 0 17 1;
#X connect 21 0 22 0;
#X connect 22 0 25 0;
#X connect 22 1 33 0;
#X connect 23 0 24 0;
#X connect 24 0 47 0;
#X connect 25 0 23 0;
#X connect 26 0 27 0;
#X connect 26 1 20 0;
#X connect 27 0 16 1;
#X connect 28 0 29 0;
#X connect 29 0 27 1;
#X connect 30 0 19 1;
#X connect 31 0 30 0;
#X connect 31 0 32 0;
#X connect 32 0 22 1;
#X connect 33 0 24 0;
#X connect 34 0 35 0;
#X connect 34 1 36 0;
#X connect 35 0 61 4;
#X connect 36 0 37 0;
#X connect 37 0 40 0;
#X connect 37 1 46 0;
#X connect 38 0 39 0;
#X connect 39 0 48 0;
#X connect 40 0 38 0;
#X connect 41 0 35 1;
#X connect 42 0 43 0;
#X connect 43 0 41 1;
#X connect 44 0 45 0;
#X connect 45 0 37 1;
#X connect 46 0 39 0;
#X connect 47 0 18 0;
#X connect 48 0 41 0;
#X connect 49 0 1 1;
#X connect 50 0 2 0;
#X connect 52 0 31 0;
#X connect 53 0 44 0;
#X connect 55 0 5 1;
#X connect 55 0 4 1;
#X connect 57 0 62 1;
#X connect 58 0 59 1;
#X connect 59 0 9 0;
#X connect 60 0 5 0;
#X connect 60 1 7 0;
#X connect 60 2 63 0;
#X connect 60 3 15 0;
#X connect 60 4 34 0;
#X connect 61 0 54 0;
#X connect 62 0 56 0;
#X connect 63 0 67 0;
#X connect 63 1 76 0;
#X connect 64 0 65 0;
#X connect 64 0 72 0;
#X connect 65 0 66 0;
#X connect 66 0 67 1;
#X connect 67 0 61 2;
#X connect 68 0 69 0;
#X connect 69 0 66 1;
#X connect 70 0 64 0;
#X connect 71 0 74 0;
#X connect 72 0 62 2;
#X connect 73 0 70 1;
#X connect 74 0 73 0;
#X connect 75 0 76 1;
#X connect 76 0 70 0;
#X connect 77 0 71 0;
#X connect 79 0 13 0;
#X connect 79 0 80 0;
#X connect 81 0 68 0;
#X connect 82 0 28 0;
#X connect 83 0 42 0;
#X connect 84 0 51 0;
#X restore 9 165 pd pan-modes;
#N canvas 2356 503 982 686 lum-modes 0;
#X obj 18 16 r update-bang;
#X obj 18 66 f;
#X obj 285 35 spigot;
#X obj 336 36 r vu-on;
#X obj 30 217 +, f 5;
#X obj 30 161 -;
#X obj 446 225 t f b;
#X obj 478 462 +, f 5;
#X obj 478 406 -;
#X obj 478 437 * 0.05;
#X obj 510 405 f;
#X obj 478 252 random 1e+06;
#X obj 478 277 moses 500000;
#X obj 478 326 random 2e+06;
#X obj 478 302 b;
#X obj 478 487 t f f;
#X obj 478 512 *;
#X obj 532 466 pow 2;
#X obj 584 227 pow 2;
#X obj 574 268 * 500000;
#X obj 518 300 b;
#X obj 711 243 t f b;
#X obj 811 214 pow 2;
#X obj 36 41 r lum-\$1-\$2-snd;
#X obj 285 10 r lum-\$1-\$2-val;
#X obj 285 84 s lumvu-\$1-\$2-rcv;
#X obj 62 160 r lum-\$1-\$2-val;
#X obj 20 630 s lum-\$1-\$2-val;
#X obj 30 192 * 0.2;
#X obj 109 236 r lummode_amp-\$1-snd;
#X obj 73 317 *;
#X obj 91 265 +;
#X obj 91 290 /;
#X obj 127 266 + 1;
#X obj 293 227 r lummode_amp-\$1-snd;
#X obj 257 308 *;
#X obj 275 256 +;
#X obj 275 281 /;
#X obj 311 257 + 1;
#X obj 275 200 * -1;
#X obj 91 206 r pan-\$1-\$2-speed;
#X obj 275 171 r pan-\$1-\$2-speed;
#X obj 584 203 r lummode_speed-\$1-snd;
#X obj 532 441 r lummode_amp-\$1-snd;
#X obj 811 139 r lummode_speed-\$1-snd;
#X obj 532 491 * 2;
#X obj 557 408 * 0.2;
#X obj 446 563 *, f 5;
#X obj 478 351 / 1e+06;
#X obj 478 538 +;
#X obj 568 520 * -1;
#X obj 568 545 + 1;
#X obj 478 377 - 0.2;
#X obj 711 524 *, f 5;
#X obj 743 297 random 1000;
#X obj 743 322 sel 0;
#X msg 743 347 1;
#X msg 778 371 0;
#X obj 811 163 * -1;
#X obj 811 189 + 1;
#X obj 814 269 + 2;
#X obj 811 241 * 100;
#X obj 778 346 del 40;
#X obj 18 116 mode_pre lummode-\$1 \$0, f 91;
#X obj 20 605 mode_post lummode-\$1 \$0, f 92;
#X obj 64 67 r lummaster-snd;
#X obj 18 91 *, f 7;
#X obj 285 60 change;
#X connect 0 0 1 0;
#X connect 1 0 66 0;
#X connect 2 0 67 0;
#X connect 3 0 2 1;
#X connect 4 0 64 0;
#X connect 5 0 28 0;
#X connect 6 0 47 0;
#X connect 6 1 11 0;
#X connect 7 0 15 0;
#X connect 8 0 9 0;
#X connect 9 0 7 0;
#X connect 10 0 8 1;
#X connect 10 0 7 1;
#X connect 11 0 12 0;
#X connect 12 0 14 0;
#X connect 12 1 20 0;
#X connect 13 0 48 0;
#X connect 14 0 13 0;
#X connect 15 0 16 0;
#X connect 15 1 10 0;
#X connect 16 0 49 0;
#X connect 17 0 45 0;
#X connect 18 0 19 0;
#X connect 18 0 46 0;
#X connect 19 0 12 1;
#X connect 20 0 48 0;
#X connect 21 0 53 0;
#X connect 21 1 54 0;
#X connect 22 0 61 0;
#X connect 23 0 1 1;
#X connect 24 0 2 0;
#X connect 26 0 5 1;
#X connect 26 0 4 1;
#X connect 28 0 4 0;
#X connect 29 0 31 1;
#X connect 29 0 33 0;
#X connect 30 0 64 1;
#X connect 31 0 32 0;
#X connect 32 0 30 1;
#X connect 33 0 32 1;
#X connect 34 0 36 1;
#X connect 34 0 38 0;
#X connect 35 0 64 2;
#X connect 36 0 37 0;
#X connect 37 0 35 1;
#X connect 38 0 37 1;
#X connect 39 0 36 0;
#X connect 40 0 31 0;
#X connect 41 0 39 0;
#X connect 42 0 18 0;
#X connect 43 0 17 0;
#X connect 44 0 58 0;
#X connect 45 0 16 1;
#X connect 45 0 50 0;
#X connect 46 0 9 1;
#X connect 47 0 64 3;
#X connect 48 0 52 0;
#X connect 49 0 47 1;
#X connect 50 0 51 0;
#X connect 51 0 49 1;
#X connect 52 0 8 0;
#X connect 53 0 64 4;
#X connect 54 0 55 0;
#X connect 55 0 56 0;
#X connect 55 0 62 0;
#X connect 56 0 53 1;
#X connect 57 0 53 1;
#X connect 58 0 59 0;
#X connect 59 0 22 0;
#X connect 60 0 54 1;
#X connect 61 0 60 0;
#X connect 62 0 57 0;
#X connect 63 0 64 0;
#X connect 63 1 30 0;
#X connect 63 2 35 0;
#X connect 63 3 6 0;
#X connect 63 4 21 0;
#X connect 64 0 27 0;
#X connect 65 0 66 1;
#X connect 66 0 63 0;
#X connect 67 0 25 0;
#X restore 10 222 pd lum-modes;
#X obj 329 18 r onetoall-\$1-snd;
#X obj 329 118 &&;
#X obj 347 41 loadbang;
#X obj 347 66 f \$2;
#X obj 347 91 != 1;
#X obj 278 158 r pan-\$1-1-snd;
#X obj 278 183 spigot;
#X obj 278 208 s pan-\$1-\$2-rcv;
#X obj 395 183 spigot;
#X obj 395 158 r lum-\$1-1-snd;
#X obj 395 208 s lum-\$1-\$2-rcv;
#N canvas 2574 852 498 385 pan-speed 0;
#X obj 15 21 r pan-\$1-\$2-val;
#X obj 15 46 t f f;
#X obj 15 75 -;
#X obj 15 232 s pan-\$1-\$2-speed;
#X obj 143 21 r pan-\$1-\$2-quad;
#X obj 15 100 * 500;
#X obj 15 154 +;
#X obj 15 129 * 0.1;
#X obj 49 155 * 0.9;
#X obj 15 179 *, f 12;
#X obj 143 108 *;
#X obj 96 130 * -1;
#X obj 281 24 r panmode-\$1-snd;
#X obj 96 155 + 1;
#X obj 15 204 +;
#X obj 281 49 t f f f, f 16;
#X obj 390 74 fmod 1;
#X obj 335 99 + 1;
#X obj 335 75 i;
#X obj 281 74 i;
#X msg 281 99 \$1 0;
#X msg 335 124 \$1 1;
#X obj 281 160 unpack f f, f 12;
#X obj 281 185 sel 1 2;
#X msg 281 211 1;
#X msg 316 211 0;
#X obj 281 236 list prepend;
#X obj 281 261 route 0 1, f 11;
#X obj 281 286 *;
#X obj 281 311 +;
#X obj 318 287 *;
#X obj 393 231 * -1;
#X obj 393 256 + 1;
#X connect 0 0 1 0;
#X connect 1 0 2 1;
#X connect 1 1 2 0;
#X connect 2 0 5 0;
#X connect 4 0 10 0;
#X connect 5 0 7 0;
#X connect 6 0 8 0;
#X connect 6 0 9 0;
#X connect 7 0 6 0;
#X connect 8 0 6 1;
#X connect 9 0 14 0;
#X connect 10 0 14 1;
#X connect 11 0 13 0;
#X connect 12 0 15 0;
#X connect 13 0 9 1;
#X connect 14 0 3 0;
#X connect 15 0 19 0;
#X connect 15 1 18 0;
#X connect 15 2 16 0;
#X connect 16 0 31 0;
#X connect 16 0 30 1;
#X connect 17 0 21 0;
#X connect 18 0 17 0;
#X connect 19 0 20 0;
#X connect 20 0 22 0;
#X connect 21 0 22 0;
#X connect 22 0 23 0;
#X connect 22 1 26 1;
#X connect 23 0 24 0;
#X connect 23 1 24 0;
#X connect 23 2 25 0;
#X connect 24 0 26 0;
#X connect 25 0 26 0;
#X connect 26 0 27 0;
#X connect 27 0 28 0;
#X connect 27 1 30 0;
#X connect 28 0 29 0;
#X connect 29 0 10 1;
#X connect 29 0 11 0;
#X connect 30 0 29 1;
#X connect 31 0 32 0;
#X connect 32 0 28 1;
#X restore 10 195 pd pan-speed;
#X obj 15 263 r pan-\$1-\$2-val;
#X obj 15 392 list prepend p \$2;
#X obj 15 424 s dmx-\$1;
#X obj 152 264 r lum-\$1-\$2-val;
#X obj 152 389 list prepend l \$2;
#X obj 152 314 clip 0 255;
#X obj 152 364 change;
#X obj 15 363 change;
#X obj 15 338 i;
#X obj 152 339 i;
#X obj 15 313 clip 0 65535;
#X obj 152 289 * 255;
#X obj 15 288 * 65535;
#X connect 9 0 10 0;
#X connect 10 0 15 1;
#X connect 10 0 17 1;
#X connect 11 0 12 0;
#X connect 12 0 13 0;
#X connect 13 0 10 1;
#X connect 14 0 15 0;
#X connect 15 0 16 0;
#X connect 17 0 19 0;
#X connect 18 0 17 0;
#X connect 21 0 33 0;
#X connect 22 0 23 0;
#X connect 24 0 32 0;
#X connect 25 0 23 0;
#X connect 26 0 30 0;
#X connect 27 0 25 0;
#X connect 28 0 22 0;
#X connect 29 0 28 0;
#X connect 30 0 27 0;
#X connect 31 0 29 0;
#X connect 32 0 26 0;
#X connect 33 0 31 0;
#X coords 0 -1 1 1 260 88 1 10 10;
