#N canvas 2 110 450 300 12;
#X obj 285 84 bng 20 250 50 0 empty empty empty 0 -10 0 12 #fcfcfc #000000 #000000;
#X obj 139 54 loadbang;
#X obj 17 83 apmasterfile \$1 \$1-patterns.txt;
#X obj 20 177 apmaster \$1;
#X obj 125 177 patternFade \$1;
#X obj 279 201 s \$1-fadeToScene-time;
#X obj 279 174 r main-fadeToScene-time;
#X obj 231 54 r \$2-save-main;
#X obj 17 55 r \$2-reload-main;
#X connect 1 0 2 0;
#X connect 6 0 5 0;
#X connect 7 0 0 0;
#X connect 7 0 2 1;
#X connect 8 0 2 0;
