#N canvas 2229 612 786 406 12;
#X obj 9 41 inlet;
#X obj 10 11 table \$0-vals;
#X obj 9 65 list prepend 0;
#X obj 9 92 s \$0-vals;
#X obj 118 40 inlet;
#X obj 118 91 s \$0-vals;
#X obj 118 64 list prepend 1;
#X obj 227 40 inlet;
#X obj 227 91 s \$0-vals;
#X obj 336 39 inlet;
#X obj 336 90 s \$0-vals;
#X obj 447 39 inlet;
#X obj 447 90 s \$0-vals;
#X obj 556 38 inlet;
#X obj 556 89 s \$0-vals;
#X obj 664 38 inlet;
#X obj 664 89 s \$0-vals;
#X obj 227 63 list prepend 2;
#X obj 336 63 list prepend 3;
#X obj 447 63 list prepend 4;
#X obj 556 62 list prepend 5;
#X obj 664 62 list prepend 6;
#X obj 106 134 r \$1-snd;
#X obj 11 187 t f f f, f 8;
#X obj 64 212 fmod 1;
#X obj 11 288 tabread \$0-vals;
#X obj 37 239 tabread \$0-vals;
#X obj 37 212 + 1;
#X obj 37 264 *;
#X obj 11 313 *, f 16;
#X obj 154 239 * -1;
#X obj 154 264 + 1;
#X obj 11 340 +;
#X obj 11 365 outlet;
#X obj 11 158 f, f 14;
#X obj 11 133 r \$1-post-\$2;
#X floatatom 130 367 5 0 0 0 - - - 0;
#X connect 0 0 2 0;
#X connect 2 0 3 0;
#X connect 4 0 6 0;
#X connect 6 0 5 0;
#X connect 7 0 17 0;
#X connect 9 0 18 0;
#X connect 11 0 19 0;
#X connect 13 0 20 0;
#X connect 15 0 21 0;
#X connect 17 0 8 0;
#X connect 18 0 10 0;
#X connect 19 0 12 0;
#X connect 20 0 14 0;
#X connect 21 0 16 0;
#X connect 22 0 34 1;
#X connect 23 0 25 0;
#X connect 23 1 27 0;
#X connect 23 2 24 0;
#X connect 24 0 28 1;
#X connect 24 0 30 0;
#X connect 25 0 29 0;
#X connect 26 0 28 0;
#X connect 27 0 26 0;
#X connect 28 0 32 1;
#X connect 29 0 32 0;
#X connect 30 0 31 0;
#X connect 31 0 29 1;
#X connect 32 0 33 0;
#X connect 34 0 23 0;
#X connect 35 0 34 0;
