#N canvas 2787 858 576 349 12;
#X obj 33 21 inlet;
#X obj 74 72 r \$1-snd;
#X obj 56 123 i;
#X obj 56 148 t f f;
#X obj 56 206 list append;
#X obj 56 97 f;
#X obj 88 172 + 1;
#X obj 56 231 route 0 1 2 3 4 5 6, f 51;
#X obj 56 256 outlet;
#X obj 106 256 outlet;
#X obj 157 256 outlet;
#X obj 207 256 outlet;
#X obj 258 256 outlet;
#X obj 308 256 outlet;
#X obj 359 256 outlet;
#X obj 33 46 t b b a;
#X obj 33 292 s \$1-post-\$2;
#X connect 0 0 15 0;
#X connect 1 0 5 1;
#X connect 2 0 3 0;
#X connect 3 0 4 0;
#X connect 3 1 6 0;
#X connect 4 0 7 0;
#X connect 5 0 2 0;
#X connect 6 0 4 0;
#X connect 7 0 8 0;
#X connect 7 1 9 0;
#X connect 7 2 10 0;
#X connect 7 3 11 0;
#X connect 7 4 12 0;
#X connect 7 5 13 0;
#X connect 7 6 14 0;
#X connect 15 0 16 0;
#X connect 15 1 5 0;
#X connect 15 2 4 1;
